<?xml version="1.0" encoding="UTF-8" standalone="no"?>
<!-- Created with Inkscape (http://www.inkscape.org/) -->

<svg
   xmlns:dc="http://purl.org/dc/elements/1.1/"
   xmlns:cc="http://creativecommons.org/ns#"
   xmlns:rdf="http://www.w3.org/1999/02/22-rdf-syntax-ns#"
   xmlns:svg="http://www.w3.org/2000/svg"
   xmlns="http://www.w3.org/2000/svg"
   xmlns:sodipodi="http://sodipodi.sourceforge.net/DTD/sodipodi-0.dtd"
   xmlns:inkscape="http://www.inkscape.org/namespaces/inkscape"
   width="177mm"
   height="123mm"
   viewBox="0 0 177 123"
   version="1.1"
   id="svg8"
   inkscape:version="0.92.4 (5da689c313, 2019-01-14)"
   sodipodi:docname="MPR-alt.svg">
  <defs
     id="defs2" />
  <sodipodi:namedview
     id="base"
     pagecolor="#ffffff"
     bordercolor="#666666"
     borderopacity="1.0"
     inkscape:pageopacity="0.0"
     inkscape:pageshadow="2"
     inkscape:zoom="0.7"
     inkscape:cx="687.23209"
     inkscape:cy="530.31369"
     inkscape:document-units="mm"
     inkscape:current-layer="layer3"
     showgrid="false"
     inkscape:window-width="1858"
     inkscape:window-height="1057"
     inkscape:window-x="54"
     inkscape:window-y="-8"
     inkscape:window-maximized="1"
     inkscape:pagecheckerboard="false"
     borderlayer="false"
     inkscape:showpageshadow="true" />
  <metadata
     id="metadata5">
    <rdf:RDF>
      <cc:Work
         rdf:about="">
        <dc:format>image/svg+xml</dc:format>
        <dc:type
           rdf:resource="http://purl.org/dc/dcmitype/StillImage" />
        <dc:title></dc:title>
      </cc:Work>
    </rdf:RDF>
  </metadata>
  <g
     inkscape:groupmode="layer"
     id="layer2"
     inkscape:label="Layer 2"
     transform="translate(0,-87)" />
  <g
     inkscape:label="Layer 1"
     inkscape:groupmode="layer"
     id="layer1"
     transform="translate(0,-174)">
    <text
       xml:space="preserve"
       style="font-style:normal;font-variant:normal;font-weight:normal;font-stretch:normal;font-size:2.46944427px;line-height:1.25;font-family:Gotham;-inkscape-font-specification:Gotham;letter-spacing:0px;word-spacing:0px;fill:#000000;fill-opacity:1;stroke:none;stroke-width:0.26458332"
       x="-227.22246"
       y="197.87415"
       id="text817-1"><tspan
         sodipodi:role="line"
         id="tspan815-5"
         x="-227.22246"
         y="197.87415"
         style="font-style:normal;font-variant:normal;font-weight:normal;font-stretch:normal;font-size:88.19445038px;font-family:Gotham;-inkscape-font-specification:Gotham;stroke-width:0.26458332">M</tspan></text>
    <text
       xml:space="preserve"
       style="font-style:normal;font-variant:normal;font-weight:normal;font-stretch:normal;font-size:2.46944427px;line-height:1.25;font-family:Gotham;-inkscape-font-specification:Gotham;letter-spacing:0px;word-spacing:0px;fill:#000000;fill-opacity:1;stroke:none;stroke-width:0.26458332"
       x="280.39465"
       y="-64.036186"
       id="text817-9"><tspan
         sodipodi:role="line"
         id="tspan815-58"
         x="280.39465"
         y="-64.036186"
         style="font-style:normal;font-variant:normal;font-weight:normal;font-stretch:normal;font-size:88.19445038px;font-family:'Hobo Std';-inkscape-font-specification:'Hobo Std';stroke-width:0.26458332">M</tspan></text>
    <text
       xml:space="preserve"
       style="font-style:normal;font-variant:normal;font-weight:normal;font-stretch:normal;font-size:2.46944427px;line-height:1.25;font-family:Gotham;-inkscape-font-specification:Gotham;letter-spacing:0px;word-spacing:0px;fill:#000000;fill-opacity:1;stroke:none;stroke-width:0.26458332"
       x="-146.74147"
       y="196.57506"
       id="text817-1-5"><tspan
         sodipodi:role="line"
         id="tspan815-5-6"
         x="-146.74147"
         y="196.57506"
         style="font-style:normal;font-variant:normal;font-weight:normal;font-stretch:normal;font-size:88.19445801px;font-family:Gotham;-inkscape-font-specification:Gotham;stroke-width:0.26458332">R</tspan></text>
    <text
       xml:space="preserve"
       style="font-style:normal;font-variant:normal;font-weight:normal;font-stretch:normal;font-size:2.46944427px;line-height:1.25;font-family:Gotham;-inkscape-font-specification:Gotham;letter-spacing:0px;word-spacing:0px;fill:#000000;fill-opacity:1;stroke:none;stroke-width:0.26458332"
       x="384.61447"
       y="-64.302284"
       id="text817-9-2"><tspan
         sodipodi:role="line"
         id="tspan815-58-1"
         x="384.61447"
         y="-64.302284"
         style="font-style:normal;font-variant:normal;font-weight:normal;font-stretch:normal;font-size:88.19445801px;font-family:'Hobo Std';-inkscape-font-specification:'Hobo Std';stroke-width:0.26458332">R</tspan></text>
    <g
       id="g951"
       transform="matrix(0.35277732,0,0,0.35277732,264.06779,-136.36984)">
      <path
         id="path907"
         d="M 255.17969,468.76172 H 46.246094 c -19.988282,0 -36.191406,-16.20313 -36.191406,-36.1875 v -1.94531 c 0,-19.98438 16.203124,-36.1875 36.191406,-36.1875 H 255.17969 c 19.98828,0 36.1914,16.20312 36.1914,36.1875 v 1.94531 c 0,19.98437 -16.20312,36.1875 -36.1914,36.1875 z m 0,0"
         inkscape:connector-curvature="0"
         style="fill:#ffcb7c" />
      <path
         id="path909"
         d="m 109.5,468.83984 c 0,13.76563 -8.84766,26.41407 -21.789062,31.1211 -12.972657,4.71875 -27.863282,0.67578 -36.714844,-9.88672 -8.949219,-10.67578 -10.175782,-26.32031 -3,-38.26172 7.082031,-11.78516 21.085937,-18.0625 34.597656,-15.5 15.425781,2.92578 26.90625,16.83984 26.90625,32.52734 z m 0,0"
         inkscape:connector-curvature="0"
         style="fill:#d1ddde" />
      <path
         id="path911"
         d="m 259.90625,468.83984 c 0,13.76563 -8.84766,26.41407 -21.78906,31.1211 -12.97266,4.71875 -27.86328,0.67578 -36.71485,-9.88672 -8.94531,-10.67578 -10.17187,-26.32031 -2.99609,-38.26172 7.07812,-11.78516 21.08594,-18.0625 34.59766,-15.5 15.42578,2.92578 26.90234,16.83984 26.90234,32.52734 z m 0,0"
         inkscape:connector-curvature="0"
         style="fill:#d1ddde" />
      <path
         id="path913"
         d="m 69.53125,394.51953 v -39.63672 c 0,-4.97656 4.035156,-9.01172 9.011719,-9.01172 h 59.859371 c 30.87891,0 60.35938,12.87891 81.33594,35.53907 l 12.15625,13.125 z m 0,0"
         inkscape:connector-curvature="0"
         style="fill:#b0e7f8" />
      <path
         id="path915"
         d="m 345.17578,24.683594 c -23.76953,-19.5 -58.68359,-19.5 -82.45312,0 -22.37891,18.355468 -31.98829,52.578125 -23.64454,80.109376 9.57422,31.60156 38.54688,56.96094 63.11719,77.19922 0.58203,0.48047 1.16797,0.95703 1.75391,1.4375 0.58594,-0.48047 1.17187,-0.95703 1.7539,-1.4375 24.21094,-19.95703 51.59375,-42.6875 62.04297,-73.39844 9.60157,-28.226562 0.73438,-64.792969 -22.57031,-83.910156 z m 0,0"
         inkscape:connector-curvature="0"
         style="fill:#f5737f" />
      <path
         id="path919"
         d="m 220.94531,312.66797 h 56.38672 c 12.91016,0 12.92969,-20.10938 0,-20.10938 h -56.38672 c -27.1875,0 -49.3125,-22.12109 -49.3125,-49.3125 0,-27.1914 22.1211,-49.3125 49.3125,-49.3125 h 82.88672 c 3.35156,0 6.3125,-1.64453 8.14063,-4.16796 0.0547,-0.0469 0.10937,-0.0898 0.16406,-0.13282 14.24609,-11.71875 28.5625,-23.5039 40.71484,-37.3789 12.15235,-13.875 22.15235,-30.0625 26.36328,-48.02344 4.34375,-18.515626 1.91016,-38.589845 -5.4414,-56.023439 C 367.71484,33.839844 358.33203,20.617188 345.16797,11.972656 330.52734,2.363281 312.30859,-1.664062 294.96875,0.628906 273.625,3.453125 253.82031,15.757812 241.37109,33.324219 c -12.44921,17.566406 -17.5039,40.085937 -14.32031,61.378906 2.9961,20.058595 12.92578,38.601565 25.73438,54.328125 7.3125,8.98047 15.55468,17.12109 24.23828,24.79297 h -56.07422 c -38.28125,0 -69.42188,31.14453 -69.42188,69.42187 0,38.28125 31.14063,69.42188 69.41797,69.42188 z M 248.69922,101.875 c -7.28906,-24.054688 1.48047,-53.898438 20.39844,-69.417969 10.09765,-8.28125 22.47656,-12.421875 34.85156,-12.421875 12.33984,0 24.67969,4.117188 34.76172,12.347656 l 0.17969,0.148438 c 19.32421,15.929688 27.8164,47.890625 19.33593,72.82422 -8.96484,26.35156 -32.39062,46.92187 -54.26562,65.03516 -23.14453,-19.33594 -47.21875,-41.97657 -55.26172,-68.51563 z m 0,0"
         inkscape:connector-curvature="0"
         style="fill:#1a1a1a;stroke:none;stroke-opacity:1" />
      <path
         id="path921"
         d="m 394.39844,292.55859 h -36.96485 c -12.91015,0 -12.92968,20.10938 0,20.10938 h 36.96485 c 30.03906,0 54.47656,24.4414 54.47656,54.48047 0,30.03515 -24.4375,54.47656 -54.47656,54.47656 h -94.0625 c -4.6211,-21.21875 -23.54297,-37.16016 -46.125,-37.16016 h -17.94141 l -9.15234,-9.88671 c -22.8086,-24.63282 -55.14453,-38.76172 -88.71485,-38.76172 H 78.542969 c -10.511719,0 -19.066407,8.55468 -19.066407,19.0664 v 29.58203 H 47.214844 C 21.179688,384.46484 0,405.64453 0,431.67969 0,452.85547 14.207031,471.23828 34.015625,477.01172 37.847656,496.91406 55.386719,512 76.390625,512 96.730469,512 113.8125,497.85938 118.35937,478.89453 h 66.47266 C 189.37891,497.85938 206.46484,512 226.80078,512 c 21.20703,0 38.875,-15.37891 42.47656,-35.56641 15.79297,-5.29296 27.5625,-18.55859 31.06641,-34.69921 h 94.05469 c 41.125,0 74.58593,-33.46094 74.58593,-74.58594 0,-41.12891 -33.46093,-74.58985 -74.58593,-74.58985 z M 79.585938,355.92578 h 58.816402 c 26.22266,0 51.54297,10.34375 70.27344,28.53906 H 79.585938 Z m -3.191407,135.96484 c -12.710937,0 -23.054687,-10.33984 -23.054687,-23.05078 0,-12.71484 10.34375,-23.05468 23.054687,-23.05468 12.707031,0 23.050781,10.33984 23.050781,23.05468 0,12.71094 -10.34375,23.05078 -23.050781,23.05078 z m 150.406249,0 c -12.71094,0 -23.05078,-10.33984 -23.05078,-23.05078 0,-12.71484 10.33984,-23.05468 23.05078,-23.05468 12.71094,0 23.05078,10.33984 23.05078,23.05468 0,12.71094 -10.33984,23.05078 -23.05078,23.05078 z m 40.93359,-36.71484 c -5.73046,-17.12109 -21.90625,-29.5 -40.93359,-29.5 -20.33594,0 -37.42187,14.14453 -41.96484,33.10938 h -66.47656 c -4.54297,-18.96485 -21.628911,-33.10938 -41.964849,-33.10938 -19.320312,0 -35.714843,12.76172 -41.203125,30.29688 C 26.203125,451.5 20.113281,442.1875 20.113281,431.67578 c 0,-14.94531 12.15625,-27.10547 27.105469,-27.10547 h 22.316406 l 162.359374,0.0195 c 0.082,0 0.16016,-0.0156 0.24219,-0.0195 h 22.07812 c 14.94532,0 27.10547,12.16016 27.10547,27.10547 -0.004,9.9375 -5.38281,18.78125 -13.58594,23.5 z m 0,0"
         inkscape:connector-curvature="0"
         style="fill:#1a1a1a" />
      <path
         id="path925"
         d="m 310.85937,295.5 c -3.86718,3.86719 -3.86328,10.35156 0,14.21875 3.86329,3.86719 10.35547,3.86719 14.21875,0 3.75391,-3.75781 3.875,-9.98047 0.29688,-13.89453 -3.80078,-4.15625 -10.52344,-4.3125 -14.51563,-0.32422 -1.87109,1.87109 1.8711,-1.87109 0,0 z m 0,0"
         inkscape:connector-curvature="0"
         style="fill:#1a1a1a" />
      <path
         id="path927"
         d="m 226.80078,458.78125 c -5.46094,0 -10.05469,4.59375 -10.05469,10.05469 0,5.46484 4.59375,10.05468 10.05469,10.05468 5.30859,0 9.80078,-4.32421 10.03516,-9.61328 0.25,-5.625 -4.39453,-10.49609 -10.03516,-10.49609 z m 0,0"
         inkscape:connector-curvature="0"
         style="fill:#1a1a1a" />
      <path
         id="path929"
         d="m 76.390625,458.78125 c -5.460937,0 -10.054687,4.59375 -10.054687,10.05469 0,5.46484 4.59375,10.05468 10.054687,10.05468 5.308594,0 9.800781,-4.32421 10.035156,-9.61328 0.25,-5.625 -4.394531,-10.49609 -10.035156,-10.49609 z m 0,0"
         inkscape:connector-curvature="0"
         style="fill:#1a1a1a" />
    </g>
    <g
       id="g981"
       transform="translate(207.49962,-157.48711)">
      <path
         inkscape:connector-curvature="0"
         id="path973"
         d="m 161.65018,38.463269 -1.46998,3.073599 -1.00226,4.009043 0.0668,3.073599 v 2.539061 l 1.40317,1.00226 2.60588,-0.467721 1.80406,-1.5368 3.00679,-2.071339 2.13815,-2.338609 1.06908,-2.873147 -0.20045,-2.672694 -1.67044,-1.33635 -2.07133,-0.935442 h -3.14042 z"
         style="fill:#ffffff;fill-opacity:1;stroke:none;stroke-width:0.26458332px;stroke-linecap:butt;stroke-linejoin:miter;stroke-opacity:1" />
      <text
         id="text817-9-2-1"
         y="70.606247"
         x="150.04967"
         style="font-style:normal;font-variant:normal;font-weight:normal;font-stretch:normal;font-size:1.2525456px;line-height:1.25;font-family:Gotham;-inkscape-font-specification:Gotham;letter-spacing:0px;word-spacing:0px;fill:#1a1a1a;fill-opacity:1;stroke:none;stroke-width:0.13420132"
         xml:space="preserve"><tspan
           style="font-style:normal;font-variant:normal;font-weight:normal;font-stretch:normal;font-size:44.73377991px;font-family:'Hobo Std';-inkscape-font-specification:'Hobo Std';fill:#1a1a1a;stroke-width:0.13420132"
           y="70.606247"
           x="150.04967"
           id="tspan815-58-1-7"
           sodipodi:role="line">P</tspan></text>
    </g>
  </g>
  <g
     inkscape:groupmode="layer"
     id="layer3"
     inkscape:label="New"
     transform="translate(0,-87)">
    <g
       id="g1215"
       transform="matrix(0.26458333,0,0,0.26458333,25.043028,80.89336)">
      <g
         id="g1110">
        <path
           id="path1106"
           d="M 511.879,475.685 471.655,254.074 c -0.401,-2.212 -1.773,-4.128 -3.739,-5.221 l -101.242,-56.31 c -1.314,-0.732 -2.787,-1.023 -4.234,-0.911 l 18.419,237.608 -0.617,0.276 121.164,54.357 c 0.986,0.441 2.034,0.659 3.077,0.659 1.651,0 3.287,-0.543 4.632,-1.596 2.198,-1.716 3.261,-4.508 2.764,-7.251 z"
           style="fill:#44c868"
           inkscape:connector-curvature="0" />
        <path
           id="path1108"
           d="M 256,246.375 152.455,192.444 c -1.241,-0.647 -2.617,-0.911 -3.972,-0.82 0.359,-0.022 0.72,-0.02 1.078,0.008 l -18.419,237.608 121.781,54.634 c 0.983,0.44 2.032,0.659 3.077,0.659 v 0 z"
           style="fill:#44c868"
           inkscape:connector-curvature="0" />
      </g>
      <g
         id="g1116">
        <path
           id="path1112"
           d="m 149.56,191.633 c -1.447,-0.112 -2.92,0.179 -4.234,0.91 l -101.243,56.31 c -1.966,1.093 -3.338,3.008 -3.739,5.221 L 0.121,475.685 c -0.498,2.742 0.566,5.534 2.763,7.252 1.347,1.053 2.982,1.596 4.632,1.596 1.043,0 2.092,-0.217 3.077,-0.659 l 120.504,-54.061 z"
           style="fill:#4ce166"
           inkscape:connector-curvature="0" />
        <path
           id="path1114"
           d="m 362.439,191.628 c -0.996,0.077 -1.981,0.342 -2.894,0.818 L 256,246.376 v 238.158 c 0,0 0,0 10e-4,0 1.045,0 2.095,-0.218 3.077,-0.659 l 121.781,-54.634 z"
           style="fill:#4ce166"
           inkscape:connector-curvature="0" />
      </g>
      <polygon
         id="polygon1118"
         points="140.977,302.346 143.786,266.107 144.252,260.097 28.154,321.233 19.983,366.252 "
         style="fill:#ffdb56" />
      <path
         id="path1120"
         d="M 142.066,288.294 140.977,302.346 19.983,366.252 0.121,475.685 c -0.498,2.742 0.566,5.534 2.763,7.252 1.347,1.053 2.982,1.596 4.632,1.596 1.043,0 2.092,-0.217 3.077,-0.659 l 120.504,-54.061 z"
         style="fill:#a8eefc"
         inkscape:connector-curvature="0" />
      <g
         id="g1126">
        <polygon
           id="polygon1122"
           points="140.977,302.346 256,477.025 256,413.507 187.363,305.429 256.03,313.642 256.03,276.08 144.252,260.097 "
           style="fill:#ffbb24" />
        <polygon
           id="polygon1124"
           points="365.269,228.128 365.845,235.564 368.119,264.898 459.946,244.421 411.311,217.37 "
           style="fill:#ffbb24" />
      </g>
      <polygon
         id="polygon1128"
         points="367.842,261.327 365.269,228.128 256.03,276.08 256.03,313.642 327.386,282.612 372.202,317.576 "
         style="fill:#ffdb56" />
      <path
         id="path1130"
         d="m 511.879,475.685 -10.103,-55.666 -133.657,-155.121 4.084,52.678 137.07,165.221 c 2.084,-1.727 3.091,-4.439 2.606,-7.112 z"
         style="fill:#ffbb24"
         inkscape:connector-curvature="0" />
      <path
         id="path1132"
         d="m 256.481,27.465 c -57.963,0 -105.12,47.118 -105.12,105.034 0,35.826 17.009,74.29 50.556,114.322 24.639,29.403 48.943,48.314 49.966,49.105 1.354,1.047 2.976,1.57 4.599,1.57 1.622,0 3.245,-0.523 4.599,-1.57 1.022,-0.791 25.327,-19.702 49.966,-49.105 33.547,-40.032 50.556,-78.495 50.556,-114.322 C 361.601,74.583 314.444,27.465 256.481,27.465 Z m 38.93,105.033 c 0,21.482 -17.43,38.898 -38.93,38.898 -21.5,0 -38.93,-17.415 -38.93,-38.898 0,-21.483 17.43,-38.898 38.93,-38.898 21.5,0 38.93,17.416 38.93,38.898 z"
         style="fill:#ff4a4a"
         inkscape:connector-curvature="0" />
      <path
         id="path1134"
         d="m 256.481,27.465 c -4.594,0 -9.119,0.298 -13.559,0.872 51.583,6.667 91.562,50.836 91.562,104.162 0,35.826 -17.009,74.29 -50.556,114.322 -15.845,18.908 -31.54,33.467 -41.005,41.669 5.254,4.552 8.596,7.154 8.96,7.436 1.354,1.047 2.976,1.57 4.599,1.57 1.622,0 3.245,-0.523 4.599,-1.57 1.022,-0.791 25.327,-19.702 49.966,-49.105 33.547,-40.032 50.556,-78.495 50.556,-114.322 C 361.601,74.583 314.444,27.465 256.481,27.465 Z"
         style="fill:#e7343f"
         inkscape:connector-curvature="0" />
      <path
         id="path1136"
         d="M 259.078,483.874 304.363,463.558 256,413.507 v 71.026 c 0,0 0,0 10e-4,0 1.045,0 2.094,-0.217 3.077,-0.659 z"
         style="fill:#ffdb56"
         inkscape:connector-curvature="0" />
      <g
         id="g1142">
        <path
           id="path1138"
           d="m 471.654,254.074 c -0.401,-2.212 -1.773,-4.128 -3.739,-5.221 l -7.97,-4.433 -91.827,20.477 v 0 l 133.656,155.121 z"
           style="fill:#1ea4e9"
           inkscape:connector-curvature="0" />
        <path
           id="path1140"
           d="m 255.999,484.533 c 0.001,0 0.001,0 0,0 v -7.508 L 140.977,302.346 131.14,429.241 252.921,483.875 c 0.983,0.441 2.032,0.658 3.078,0.658 z"
           style="fill:#1ea4e9"
           inkscape:connector-curvature="0" />
      </g>
      <g
         id="g1144" />
      <g
         id="g1146" />
      <g
         id="g1148" />
      <g
         id="g1150" />
      <g
         id="g1152" />
      <g
         id="g1154" />
      <g
         id="g1156" />
      <g
         id="g1158" />
      <g
         id="g1160" />
      <g
         id="g1162" />
      <g
         id="g1164" />
      <g
         id="g1166" />
      <g
         id="g1168" />
      <g
         id="g1170" />
      <g
         id="g1172" />
    </g>
    <text
       xml:space="preserve"
       style="font-style:normal;font-variant:normal;font-weight:normal;font-stretch:normal;font-size:2.46944427px;line-height:1.25;font-family:Gotham;-inkscape-font-specification:Gotham;letter-spacing:0px;word-spacing:0px;fill:#000000;fill-opacity:1;stroke:none;stroke-width:0.26458332"
       x="-5.2048836"
       y="172.21542"
       id="text817"><tspan
         sodipodi:role="line"
         id="tspan815"
         x="-5.2048836"
         y="172.21542"
         style="font-style:normal;font-variant:normal;font-weight:normal;font-stretch:normal;font-size:88.19444275px;font-family:PosteramaTextW07-Bold;-inkscape-font-specification:PosteramaTextW07-Bold;stroke-width:0.26458332">M</tspan></text>
    <text
       xml:space="preserve"
       style="font-style:normal;font-variant:normal;font-weight:normal;font-stretch:normal;font-size:2.46944427px;line-height:1.25;font-family:Gotham;-inkscape-font-specification:Gotham;letter-spacing:0px;word-spacing:0px;fill:#000000;fill-opacity:1;stroke:none;stroke-width:0.26458332"
       x="115.91048"
       y="150.03078"
       id="text817-8"><tspan
         sodipodi:role="line"
         id="tspan815-0"
         x="115.91048"
         y="150.03078"
         style="font-style:normal;font-variant:normal;font-weight:normal;font-stretch:normal;font-size:88.19445038px;font-family:PosteramaTextW07-Bold;-inkscape-font-specification:PosteramaTextW07-Bold;stroke-width:0.26458332">R</tspan></text>
    <text
       xml:space="preserve"
       style="font-style:normal;font-variant:normal;font-weight:normal;font-stretch:normal;font-size:1.53378487px;line-height:1.25;font-family:Gotham;-inkscape-font-specification:Gotham;letter-spacing:0px;word-spacing:0px;fill:#000000;fill-opacity:1;stroke:none;stroke-width:0.1643341"
       x="76.381248"
       y="141.05014"
       id="text817-7"><tspan
         sodipodi:role="line"
         id="tspan815-9"
         x="76.381248"
         y="141.05014"
         style="font-style:normal;font-variant:normal;font-weight:normal;font-stretch:normal;font-size:54.77804184px;font-family:PosteramaTextW07-Bold;-inkscape-font-specification:PosteramaTextW07-Bold;stroke-width:0.1643341">P</tspan></text>
  </g>
</svg>
